<?xml version="1.0" standalone="no"?>
<!DOCTYPE svg PUBLIC "-//W3C//DTD SVG 1.1//EN" "http://www.w3.org/Graphics/SVG/1.1/DTD/svg11.dtd">
<svg width="36" height="68" viewBox="-18 -34 36 68" xmlns="http://www.w3.org/2000/svg" version="1.1">
<title>OpenSCAD Model</title>
<path d="
M 14.2803,33.9231 L 15.0307,33.6955 L 15.7223,33.3259 L 16.3284,32.8284 L 16.8259,32.2223 L 17.1955,31.5307
 L 17.4231,30.7803 L 17.5,30 L 17.5,-30 L 17.4231,-30.7803 L 17.1955,-31.5307 L 16.8259,-32.2223
 L 16.3284,-32.8284 L 15.7223,-33.3259 L 15.0307,-33.6955 L 14.2803,-33.9231 L 13.5,-34 L -13.5,-34
 L -14.2803,-33.9231 L -15.0307,-33.6955 L -15.7223,-33.3259 L -16.3284,-32.8284 L -16.8259,-32.2223 L -17.1955,-31.5307
 L -17.4231,-30.7803 L -17.5,-30 L -17.5,30 L -17.4231,30.7803 L -17.1955,31.5307 L -16.8259,32.2223
 L -16.3284,32.8284 L -15.7223,33.3259 L -15.0307,33.6955 L -14.2803,33.9231 L -13.5,34 L 13.5,34
 z
M -12.2,-16.9098 L -12.2,-28.0902 L 12.2,-28.0902 L 12.2,-16.9098 z
M -11.9097,-9.44034 L -12.3036,-9.55984 L -12.6667,-9.75391 L -12.9849,-10.0151 L -13.2461,-10.3333 L -13.4401,-10.6964
 L -13.5596,-11.0903 L -13.6,-11.5 L -13.5596,-11.9097 L -13.4401,-12.3036 L -13.2461,-12.6667 L -12.9849,-12.9849
 L -12.6667,-13.2461 L -12.3036,-13.4401 L -11.9097,-13.5596 L -11.5,-13.6 L -11.0903,-13.5596 L -10.6964,-13.4401
 L -10.3333,-13.2461 L -10.0151,-12.9849 L -9.75391,-12.6667 L -9.55984,-12.3036 L -9.44034,-11.9097 L -9.39999,-11.5
 L -9.44034,-11.0903 L -9.55984,-10.6964 L -9.75391,-10.3333 L -10.0151,-10.0151 L -10.3333,-9.75391 L -10.6964,-9.55984
 L -11.0903,-9.44034 L -11.5,-9.39999 z
M 11.0903,-9.44034 L 10.6964,-9.55984 L 10.3333,-9.75391 L 10.0151,-10.0151 L 9.75391,-10.3333 L 9.55984,-10.6964
 L 9.44034,-11.0903 L 9.39999,-11.5 L 9.44034,-11.9097 L 9.55984,-12.3036 L 9.75391,-12.6667 L 10.0151,-12.9849
 L 10.3333,-13.2461 L 10.6964,-13.4401 L 11.0903,-13.5596 L 11.5,-13.6 L 11.9097,-13.5596 L 12.3036,-13.4401
 L 12.6667,-13.2461 L 12.9849,-12.9849 L 13.2461,-12.6667 L 13.4401,-12.3036 L 13.5596,-11.9097 L 13.6,-11.5
 L 13.5596,-11.0903 L 13.4401,-10.6964 L 13.2461,-10.3333 L 12.9849,-10.0151 L 12.6667,-9.75391 L 12.3036,-9.55984
 L 11.9097,-9.44034 L 11.5,-9.39999 z
M 6.5903,8.45964 L 6.19635,8.34013 L 5.8333,8.14607 L 5.51508,7.88492 L 5.25391,7.5667 L 5.05984,7.20363
 L 4.94034,6.80968 L 4.89999,6.39999 L 4.94034,5.9903 L 5.05984,5.59636 L 5.25391,5.23329 L 5.51508,4.91507
 L 5.8333,4.6539 L 6.19635,4.45984 L 6.5903,4.34035 L 7,4.29999 L 7.40968,4.34035 L 7.80363,4.45984
 L 8.16669,4.6539 L 8.48491,4.91507 L 8.74608,5.23329 L 8.94014,5.59636 L 9.05965,5.9903 L 9.09999,6.39999
 L 9.05965,6.80968 L 8.94014,7.20363 L 8.74608,7.5667 L 8.48491,7.88492 L 8.16669,8.14607 L 7.80363,8.34013
 L 7.40968,8.45964 L 7,8.5 z
M -7.40968,8.45964 L -7.80363,8.34013 L -8.16669,8.14607 L -8.48491,7.88492 L -8.74608,7.5667 L -8.94014,7.20363
 L -9.05965,6.80968 L -9.09999,6.39999 L -9.05965,5.9903 L -8.94014,5.59636 L -8.74608,5.23329 L -8.48491,4.91507
 L -8.16669,4.6539 L -7.80363,4.45984 L -7.40968,4.34035 L -7,4.29999 L -6.5903,4.34035 L -6.19635,4.45984
 L -5.8333,4.6539 L -5.51508,4.91507 L -5.25391,5.23329 L -5.05984,5.59636 L -4.94034,5.9903 L -4.89999,6.39999
 L -4.94034,6.80968 L -5.05984,7.20363 L -5.25391,7.5667 L -5.51508,7.88492 L -5.8333,8.14607 L -6.19635,8.34013
 L -6.5903,8.45964 L -7,8.5 z
M -11.9097,13.5596 L -12.3036,13.4401 L -12.6667,13.2461 L -12.9849,12.9849 L -13.2461,12.6667 L -13.4401,12.3036
 L -13.5596,11.9097 L -13.6,11.5 L -13.5596,11.0903 L -13.4401,10.6964 L -13.2461,10.3333 L -12.9849,10.0151
 L -12.6667,9.75391 L -12.3036,9.55984 L -11.9097,9.44034 L -11.5,9.39999 L -11.0903,9.44034 L -10.6964,9.55984
 L -10.3333,9.75391 L -10.0151,10.0151 L -9.75391,10.3333 L -9.55984,10.6964 L -9.44034,11.0903 L -9.39999,11.5
 L -9.44034,11.9097 L -9.55984,12.3036 L -9.75391,12.6667 L -10.0151,12.9849 L -10.3333,13.2461 L -10.6964,13.4401
 L -11.0903,13.5596 L -11.5,13.6 z
M 11.0903,13.5596 L 10.6964,13.4401 L 10.3333,13.2461 L 10.0151,12.9849 L 9.75391,12.6667 L 9.55984,12.3036
 L 9.44034,11.9097 L 9.39999,11.5 L 9.44034,11.0903 L 9.55984,10.6964 L 9.75391,10.3333 L 10.0151,10.0151
 L 10.3333,9.75391 L 10.6964,9.55984 L 11.0903,9.44034 L 11.5,9.39999 L 11.9097,9.44034 L 12.3036,9.55984
 L 12.6667,9.75391 L 12.9849,10.0151 L 13.2461,10.3333 L 13.4401,10.6964 L 13.5596,11.0903 L 13.6,11.5
 L 13.5596,11.9097 L 13.4401,12.3036 L 13.2461,12.6667 L 12.9849,12.9849 L 12.6667,13.2461 L 12.3036,13.4401
 L 11.9097,13.5596 L 11.5,13.6 z
M -12.2,28.0902 L -12.2,16.9098 L 12.2,16.9098 L 12.2,28.0902 z
" stroke="black" fill="lightgray" stroke-width="0.5"/></svg>
